<svg width="76" height="108" viewBox="0 0 76 108" fill="none" xmlns="http://www.w3.org/2000/svg">
<path id="Vector" d="M37.6892 0.881836C17.0516 0.881836 0.261719 18.2383 0.261719 39.5721C0.261719 66.0481 33.7557 104.916 35.1817 106.558C36.5211 108.1 38.8597 108.098 40.1967 106.558C41.6228 104.916 75.1167 66.0481 75.1167 39.5721C75.1163 18.2383 58.3266 0.881836 37.6892 0.881836ZM37.6892 59.0383C27.3059 59.0383 18.8587 50.3058 18.8587 39.5721C18.8587 28.8384 27.3061 20.1062 37.6892 20.1062C48.0723 20.1062 56.5195 28.8386 56.5195 39.5723C56.5195 50.306 48.0723 59.0383 37.6892 59.0383Z" fill="#FFDF42" fill-opacity="0.1"/>
</svg>
