<svg width="115" height="163" viewBox="0 0 115 163" fill="none" xmlns="http://www.w3.org/2000/svg">
<path id="Vector" d="M57.796 0.797852C26.4096 0.797852 0.875 27.0612 0.875 59.3431C0.875 99.406 51.8137 158.221 53.9825 160.705C56.0195 163.038 59.5761 163.034 61.6095 160.705C63.7783 158.221 114.717 99.406 114.717 59.3431C114.716 27.0612 89.1821 0.797852 57.796 0.797852ZM57.796 88.7989C42.0047 88.7989 29.1579 75.5851 29.1579 59.3431C29.1579 43.1012 42.005 29.8877 57.796 29.8877C73.587 29.8877 86.4337 43.1015 86.4337 59.3435C86.4337 75.5854 73.587 88.7989 57.796 88.7989Z" fill="#FFDF42" fill-opacity="0.1"/>
</svg>
