<svg width="107" height="151" viewBox="0 0 107 151" fill="none" xmlns="http://www.w3.org/2000/svg">
<path id="Vector" d="M53.7248 0.735352C24.5929 0.735352 0.892578 24.9903 0.892578 54.8036C0.892578 91.8028 48.1722 146.12 50.1852 148.414C52.0759 150.569 55.377 150.565 57.2644 148.414C59.2773 146.12 106.557 91.8028 106.557 54.8036C106.556 24.9903 82.8563 0.735352 53.7248 0.735352ZM53.7248 82.0068C39.0678 82.0068 27.1438 69.8035 27.1438 54.8036C27.1438 39.8037 39.0681 27.6006 53.7248 27.6006C68.3814 27.6006 80.3054 39.8039 80.3054 54.8039C80.3054 69.8038 68.3814 82.0068 53.7248 82.0068Z" fill="#FFDF42" fill-opacity="0.1"/>
</svg>
