<svg width="36" height="40" viewBox="0 0 36 40" fill="none" xmlns="http://www.w3.org/2000/svg">
<path fill-rule="evenodd" clip-rule="evenodd" d="M15.0703 25.1859V39.3803H16.4353C19.3837 39.3803 22.0591 38.9253 24.4615 38.0153C26.8639 37.0689 28.9205 35.7585 30.6313 34.0841C32.3421 32.3733 33.6525 30.3349 34.5625 27.9689C35.5089 25.5665 35.9821 22.8911 35.9821 19.9427C35.9821 17.2855 35.5635 14.7921 34.7263 12.4625C33.8891 10.0965 32.6515 8.03987 31.0135 6.29267C29.3755 4.54546 27.3371 3.16226 24.8983 2.14306C22.4595 1.12386 19.6385 0.614258 16.4353 0.614258H15.0703V7.5293H19.3759C20.5596 7.5293 21.6522 7.79247 22.6537 8.31882C23.6553 8.82124 24.5089 9.49114 25.2145 10.3285C25.9429 11.142 26.5119 12.087 26.9217 13.1636C27.3314 14.2163 27.5362 15.281 27.5362 16.3576C27.5362 17.8409 27.229 19.2286 26.6144 20.5205C25.9998 21.7885 25.1462 22.8293 24.0536 23.6427L29.1751 33.0093H21.6636L17.3956 25.1859H15.0703ZM15.0703 19.085H19.1028C19.5125 19.085 19.8881 18.8458 20.2295 18.3673C20.5937 17.8888 20.7758 17.2189 20.7758 16.3576C20.7758 15.4724 20.571 14.8025 20.1612 14.3479C19.7515 13.8694 19.3418 13.6301 18.9321 13.6301H15.0703V19.085Z" fill="#FFDF42"/>
<path d="M10.975 28.1862V10.7148H9.61001L1.875 20.3606V22.1806H20.075" stroke="url(#paint0_linear_1_16181)" stroke-width="3"/>
<defs>
<linearGradient id="paint0_linear_1_16181" x1="12.34" y1="21.6349" x2="21.44" y2="21.6349" gradientUnits="userSpaceOnUse">
<stop stop-color="white"/>
<stop offset="1" stop-color="#211A1D" stop-opacity="0"/>
</linearGradient>
</defs>
</svg>
