<svg width="25" height="25" viewBox="0 0 25 25" fill="none" xmlns="http://www.w3.org/2000/svg">
<g id="Telegram">
<g id="Telegram_2">
<path id="Oval" d="M12.875 24.3799C19.5024 24.3799 24.875 19.0073 24.875 12.3799C24.875 5.75247 19.5024 0.379883 12.875 0.379883C6.24758 0.379883 0.875 5.75247 0.875 12.3799C0.875 19.0073 6.24758 24.3799 12.875 24.3799Z" fill="url(#paint0_linear_1_15874)"/>
<path id="Shape" d="M10.6742 17.8799C10.2855 17.8799 10.3515 17.7331 10.2174 17.3629L9.07422 13.6005L17.8742 8.37988" fill="#C8DAEA"/>
<path id="Shape_2" d="M10.6758 17.8796C10.9758 17.8796 11.1083 17.7424 11.2758 17.5796L12.8758 16.0238L10.88 14.8203" fill="#A9C9DD"/>
<path id="Shape_3" d="M10.8797 14.8206L15.7157 18.3935C16.2676 18.698 16.6658 18.5404 16.8033 17.8812L18.7718 8.60488C18.9733 7.79686 18.4638 7.43038 17.9359 7.67006L6.37686 12.1272C5.58785 12.4436 5.59245 12.8838 6.23304 13.08L9.19934 14.0058L16.0666 9.67329C16.3908 9.4767 16.6884 9.58239 16.4442 9.79913" fill="url(#paint1_linear_1_15874)"/>
</g>
</g>
<defs>
<linearGradient id="paint0_linear_1_15874" x1="9.8762" y1="1.38068" x2="3.8762" y2="15.3799" gradientUnits="userSpaceOnUse">
<stop stop-color="#37AEE2"/>
<stop offset="1" stop-color="#1E96C8"/>
</linearGradient>
<linearGradient id="paint1_linear_1_15874" x1="11.3735" y1="13.1167" x2="12.6557" y2="17.2642" gradientUnits="userSpaceOnUse">
<stop stop-color="#EFF7FC"/>
<stop offset="1" stop-color="white"/>
</linearGradient>
</defs>
</svg>
