<svg width="25" height="25" viewBox="0 0 25 25" fill="none" xmlns="http://www.w3.org/2000/svg">
<g id="Viber">
<g id="Viber_2">
<path id="Oval" d="M12.875 0.380859C19.5024 0.380859 24.875 5.75344 24.875 12.3809C24.875 19.0083 19.5024 24.3809 12.875 24.3809C6.24758 24.3809 0.875 19.0083 0.875 12.3809C0.875 5.75344 6.24758 0.380859 12.875 0.380859Z" fill="#7F4DA0"/>
<path id="Path" d="M16.0715 10.8603C16.0131 10.3861 15.8674 10.0138 15.6085 9.68406C15.2725 9.25942 14.843 9.00514 14.2072 8.8543C13.7928 8.75376 13.6254 8.76531 13.4755 8.9022C13.3359 9.03046 13.3086 9.28758 13.4153 9.45408C13.4903 9.57493 13.5769 9.61823 13.8176 9.66548C14.1382 9.72445 14.3597 9.801 14.5612 9.91622C14.9889 10.1632 15.1881 10.5497 15.2094 11.1753C15.2194 11.4691 15.2448 11.5594 15.3474 11.6636C15.5376 11.8541 15.876 11.817 16.0196 11.5891C16.0723 11.5032 16.0803 11.4658 16.0859 11.2663C16.0895 11.1428 16.0842 10.959 16.0715 10.8603Z" fill="white"/>
<path id="Path_2" d="M17.7476 11.3947C17.6632 9.94203 17.095 8.77328 16.0781 7.95097C15.5051 7.48891 14.8126 7.17119 14.0535 7.01668C13.7754 6.96141 13.2634 6.91662 13.1756 6.94224C13.0927 6.96597 12.9754 7.05571 12.9232 7.13687C12.8679 7.22488 12.8555 7.42139 12.9026 7.53505C12.9787 7.72507 13.1202 7.79219 13.5166 7.82687C14.1277 7.88033 14.7579 8.09501 15.2341 8.41284C15.7778 8.7747 16.2099 9.26965 16.4895 9.85126C16.7311 10.351 16.8797 11.0711 16.8755 11.716C16.8742 11.9493 16.9102 12.081 17.004 12.1773C17.1456 12.3254 17.352 12.3577 17.5341 12.2594C17.736 12.1532 17.7832 11.9669 17.7476 11.3947Z" fill="white"/>
<path id="Path_3" d="M19.602 16.9888C19.5736 16.9058 19.5073 16.7777 19.4599 16.7042C19.1615 16.2535 17.5582 14.9987 16.7577 14.5884C16.3006 14.3536 15.9619 14.2753 15.7109 14.3488C15.4409 14.4248 15.2988 14.5504 14.8464 15.1126C14.6641 15.3379 14.477 15.549 14.4272 15.5822C14.3041 15.6676 14.0625 15.7364 13.892 15.7364C13.4965 15.734 12.7788 15.4779 12.227 15.141C11.7983 14.8802 11.2489 14.4129 10.8273 13.9504C10.33 13.4072 9.99133 12.9281 9.72368 12.3873C9.37792 11.6923 9.29029 11.2677 9.43474 10.957C9.47027 10.8787 9.51765 10.7957 9.53893 10.7696C9.56026 10.7459 9.7829 10.5632 10.0292 10.364C10.5123 9.97975 10.5905 9.89199 10.6805 9.6287C10.7942 9.29424 10.7634 8.95269 10.5881 8.60877C10.4531 8.34785 10.1002 7.77859 9.84447 7.41095C9.5058 6.92709 8.66267 5.89293 8.49449 5.75294C8.19135 5.50629 7.80297 5.46357 7.37426 5.62964C6.92195 5.80516 6.07406 6.48827 5.71169 6.96504C5.38486 7.39672 5.25938 7.70268 5.24041 8.10592C5.22384 8.43797 5.25225 8.57555 5.42752 9.00014C6.79879 12.3303 8.84501 14.9893 11.6563 17.1003C13.1246 18.2032 14.6475 19.0429 16.2271 19.6169C17.1484 19.9513 17.5487 19.9679 18.02 19.6928C18.2189 19.5742 18.7115 19.069 18.9862 18.7013C19.441 18.0894 19.6091 17.8071 19.6565 17.5818C19.6897 17.4276 19.6636 17.1596 19.602 16.9888Z" fill="white"/>
<path id="Path_4" d="M19.4523 11.7281C19.422 10.9064 19.2837 10.2324 18.9952 9.48092C18.7104 8.74172 18.4221 8.25936 17.8777 7.60695C17.363 6.99524 16.9633 6.64597 16.3293 6.25718C15.4447 5.71548 14.3682 5.35701 13.1618 5.20625C12.7504 5.15356 12.6573 5.15732 12.5311 5.24154C12.2865 5.40108 12.2898 5.79902 12.5351 5.95617C12.6163 6.00616 12.6884 6.02437 13.0175 6.06745C13.5227 6.13546 13.8475 6.19956 14.233 6.30473C15.7445 6.71792 16.9069 7.56249 17.684 8.81622C18.3343 9.86122 18.6042 10.9063 18.5659 12.241C18.5526 12.6923 18.5622 12.7717 18.6312 12.8801C18.7633 13.0822 19.1117 13.1221 19.2904 12.9544C19.4015 12.8523 19.4225 12.7755 19.4444 12.3893C19.4549 12.1879 19.4572 11.8905 19.4523 11.7281Z" fill="white"/>
</g>
</g>
</svg>
