<svg width="25" height="25" viewBox="0 0 25 25" fill="none" xmlns="http://www.w3.org/2000/svg">
<g id="WhatsApp">
<g id="WhatsApp_2">
<path id="Oval" d="M12.875 24.3799C19.5024 24.3799 24.875 19.0073 24.875 12.3799C24.875 5.75247 19.5024 0.379883 12.875 0.379883C6.24758 0.379883 0.875 5.75247 0.875 12.3799C0.875 19.0073 6.24758 24.3799 12.875 24.3799Z" fill="#25D366"/>
<path id="Page-1" fill-rule="evenodd" clip-rule="evenodd" d="M13.2698 19.0556H13.2668C12.0726 19.0551 10.8991 18.7555 9.85689 18.187L6.07422 19.1793L7.08653 15.4817C6.46209 14.3996 6.13351 13.172 6.13404 11.9144C6.13561 7.98014 9.33663 4.7793 13.2697 4.7793C15.1785 4.78012 16.9701 5.52323 18.3173 6.872C19.6645 8.22071 20.406 10.0135 20.4053 11.92C20.4037 15.8534 17.204 19.0539 13.2698 19.0556ZM10.0322 16.8952L10.2487 17.0237C11.1593 17.564 12.2031 17.85 13.2674 17.8504H13.2698C16.5386 17.8504 19.1992 15.1898 19.2005 11.9195C19.2011 10.3348 18.5848 8.84475 17.4651 7.7237C16.3453 6.60265 14.8562 5.98497 13.2721 5.98443C10.0007 5.98443 7.3401 8.64476 7.33881 11.9147C7.33835 13.0354 7.6519 14.1268 8.24559 15.071L8.3866 15.2954L7.78746 17.484L10.0322 16.8952ZM16.6204 13.4562C16.7448 13.5163 16.8287 13.5569 16.8646 13.6167C16.9091 13.6911 16.9091 14.048 16.7607 14.4646C16.612 14.881 15.8997 15.2612 15.5571 15.3123C15.25 15.3583 14.8613 15.3774 14.4342 15.2417C14.1752 15.1595 13.8431 15.0498 13.4178 14.8661C11.7463 14.1444 10.6167 12.5244 10.4032 12.2182C10.3883 12.1967 10.3778 12.1817 10.372 12.1739L10.3705 12.172C10.2762 12.0461 9.64396 11.2026 9.64396 10.3295C9.64396 9.50828 10.0474 9.07781 10.2331 8.87966C10.2458 8.86609 10.2575 8.8536 10.268 8.84216C10.4314 8.66366 10.6246 8.61903 10.7434 8.61903C10.8623 8.61903 10.9813 8.62013 11.0851 8.62535C11.098 8.62599 11.1113 8.62592 11.1251 8.62584C11.229 8.62523 11.3585 8.62447 11.4863 8.93141C11.5355 9.04954 11.6074 9.22467 11.6833 9.40937C11.8367 9.78288 12.0062 10.1955 12.036 10.2553C12.0806 10.3445 12.1103 10.4486 12.0509 10.5676C12.0419 10.5855 12.0337 10.6023 12.0258 10.6184C11.9812 10.7096 11.9483 10.7766 11.8726 10.865C11.8428 10.8998 11.812 10.9373 11.7812 10.9748C11.7199 11.0495 11.6585 11.1242 11.6051 11.1774C11.5159 11.2663 11.423 11.3628 11.527 11.5413C11.631 11.7198 11.9888 12.3036 12.5188 12.7764C13.0886 13.2846 13.5838 13.4994 13.8348 13.6083C13.8838 13.6295 13.9235 13.6468 13.9526 13.6613C14.1309 13.7506 14.2349 13.7357 14.3389 13.6167C14.4429 13.4977 14.7846 13.0961 14.9034 12.9176C15.0223 12.7392 15.1412 12.7689 15.3046 12.8284C15.468 12.8879 16.3446 13.3192 16.5229 13.4085C16.5577 13.4259 16.5902 13.4416 16.6204 13.4562Z" fill="#FDFDFD"/>
</g>
</g>
</svg>
